HIERARCHY
ROOT Hips
{
  OFFSET 59.6422 97.0319 27.3806
  CHANNELS 6 Xposition Yposition Zposition Zrotation Xrotation Yrotation
  JOINT spine
  {
    OFFSET 0 7.96568 0.458067
    CHANNELS 3 Zrotation Xrotation Yrotation
    JOINT spine1
    {
      OFFSET 0 10.2431 0
      CHANNELS 3 Zrotation Xrotation Yrotation
      JOINT spine2
      {
        OFFSET 0 9.81475 0
        CHANNELS 3 Zrotation Xrotation Yrotation
        JOINT Neck
        {
          OFFSET 0 25.1986 1.20138
          CHANNELS 3 Zrotation Xrotation Yrotation
          JOINT Head
          {
            OFFSET 0 7.61315 0
            CHANNELS 3 Zrotation Xrotation Yrotation
            End Site
            {
              OFFSET 0 18.4281 -6.07733
            }
          }
        }
        JOINT RightShoulder
        {
          OFFSET -4.1327 10.5992 -0.575451
          CHANNELS 3 Zrotation Xrotation Yrotation
          JOINT RightArm
          {
            OFFSET 0 13.9018 0
            CHANNELS 3 Zrotation Xrotation Yrotation
            JOINT RightArmRoll
            {
              OFFSET 0 7.01788 0
              CHANNELS 3 Zrotation Xrotation Yrotation
              JOINT RightForeArm
              {
                OFFSET 0 20.4406 0
                CHANNELS 3 Zrotation Xrotation Yrotation
                JOINT RightForeArmRoll
                {
                  OFFSET 0 7.87515 0
                  CHANNELS 3 Zrotation Xrotation Yrotation
                  JOINT RightHand
                  {
                    OFFSET 0 15.8037 0
                    CHANNELS 3 Zrotation Xrotation Yrotation
                    End Site
                    {
                      OFFSET 0 0 0
                    }
                  }
                }
              }
            }
          }
        }
        JOINT LeftShoulder
        {
          OFFSET 4.1327 10.5992 -0.575451
          CHANNELS 3 Zrotation Xrotation Yrotation
          JOINT LeftArm
          {
            OFFSET 0 13.9018 0
            CHANNELS 3 Zrotation Xrotation Yrotation
            JOINT LeftArmRoll
            {
              OFFSET 0 7.01789 0
              CHANNELS 3 Zrotation Xrotation Yrotation
              JOINT LeftForeArm
              {
                OFFSET 0 20.4406 0
                CHANNELS 3 Zrotation Xrotation Yrotation
                JOINT LeftForeArmRoll
                {
                  OFFSET 0 7.87515 0
                  CHANNELS 3 Zrotation Xrotation Yrotation
                  JOINT LeftHand
                  {
                    OFFSET 0 15.8037 0
                    CHANNELS 3 Zrotation Xrotation Yrotation
                    End Site
                    {
                      OFFSET 0 0 0
                    }
                  }
                }
              }
            }
          }
        }
      }
    }
  }
  JOINT RightUpLeg
  {
    OFFSET -7.06048 -1.2947 -1.08609
    CHANNELS 3 Zrotation Xrotation Yrotation
    JOINT RightUpLegRoll
    {
      OFFSET 0 18.5308 0
      CHANNELS 3 Zrotation Xrotation Yrotation
      JOINT RightLeg
      {
        OFFSET 0 -22.9476 0
        CHANNELS 3 Zrotation Xrotation Yrotation
        JOINT RightLegRoll
        {
          OFFSET 0 23.0226 0
          CHANNELS 3 Zrotation Xrotation Yrotation
          JOINT RightFoot
          {
            OFFSET 0 19.1625 0
            CHANNELS 3 Zrotation Xrotation Yrotation
            JOINT RightToeBase
            {
              OFFSET 0 16.0188 0
              CHANNELS 3 Zrotation Xrotation Yrotation
              End Site
              {
                OFFSET 0.00678979 7.75782 -0.894206
              }
            }
          }
        }
      }
    }
  }
  JOINT LeftUpLeg
  {
    OFFSET 7.06048 -1.2947 -1.08609
    CHANNELS 3 Zrotation Xrotation Yrotation
    JOINT LeftUpLegRoll
    {
      OFFSET 0 18.5309 0
      CHANNELS 3 Zrotation Xrotation Yrotation
      JOINT LeftLeg
      {
        OFFSET 0 22.9475 0
        CHANNELS 3 Zrotation Xrotation Yrotation
        JOINT LeftLegRoll
        {
          OFFSET 0 23.2355 0
          CHANNELS 3 Zrotation Xrotation Yrotation
          JOINT LeftFoot
          {
            OFFSET 0 18.9496 0
            CHANNELS 3 Zrotation Xrotation Yrotation
            JOINT LeftToeBase
            {
              OFFSET 0 16.0188 0
              CHANNELS 3 Zrotation Xrotation Yrotation
              End Site
              {
                OFFSET -0.0304289 7.75782 -0.894207
              }
            }
          }
        }
      }
    }
  }
}
MOTION
Frames: 12
Frame Time: 0.00208333
59.7957 96.977 25.896 0.102772 -5.17963 0.274514 0.0463588 -0.40457 -0.208581 0.0957347 3.19353 -0.423218 0.100896 4.83858 -0.425372 -2.42712 7.64946 2.94836 0.8081 7.7932 2.48194 70.6317 -3.14223 -2.91842 106.247 21.2206 4.42091 1.19271e-015 -9.54166e-015 3.18055e-015 8.03579 12.9117 -1.87571 -8.47159e-006 -1.19465e-005 -3.00221 8.02913 -4.95141 0.697663 -63.8875 -2.63198 2.09342 -113.723 21.3716 10.96 -2.96836e-005 1.07723e-006 1.20732e-006 -15.8504 8.33952 1.511 1.0874e-005 1.20473e-006 3.00001 -8.02898 -4.95142 -0.697703 176.915 -4.61212 3.17145 180 7.01511e-015 178.777 178.858 5.52886 179.631 4.95523e-006 -6.37223e-006 0.088068 -19.1963 68.4676 19.9426 8.13649 25.2327 -3.48774 -174.497 -2.85214 -2.1841 4.54188e-006 -4.6773e-006 -1.16577 -2.41811 -7.16777 0.0146522 4.09101e-008 -1.01983e-005 -0.122583 19.7223 69.1328 -20.5412 -8.13649 25.2327 3.48774 
59.8083 96.9872 25.9056 0.100116 -5.17173 0.259982 0.04706 -0.405112 -0.209638 0.0967118 3.19244 -0.42567 0.101908 4.83749 -0.427832 -2.37774 7.65723 2.95315 0.778 7.91031 2.49661 70.6408 -3.15683 -2.92616 106.229 21.2056 4.54263 3.33958e-014 -1.27222e-014 1.27222e-014 7.95037 12.8425 -1.86181 -8.47159e-006 -1.19465e-005 -3.00221 8.02913 -4.95141 0.697663 -63.8836 -2.63182 2.09299 -113.695 21.2989 10.949 -2.96836e-005 1.07723e-006 1.20732e-006 -15.8731 8.39258 1.52 1.0874e-005 1.20473e-006 3.00001 -8.02898 -4.95142 -0.697703 176.915 -4.60001 3.17053 180 7.01511e-015 178.777 178.856 5.52436 179.631 4.95523e-006 -6.37223e-006 0.0880654 -19.1914 68.4621 19.9373 8.13649 25.2327 -3.48774 -174.496 -2.84447 -2.18509 4.54188e-006 -4.6773e-006 -1.16577 -2.4205 -7.16795 0.0143464 4.09101e-008 -1.01983e-005 -0.122583 19.7231 69.1337 -20.5421 -8.13649 25.2327 3.48774 
59.807 96.9831 25.9005 0.0973801 -5.16406 0.245242 0.0477533 -0.405612 -0.210689 0.0976516 3.19144 -0.428125 0.102882 4.83649 -0.430295 -2.32718 7.6638 2.95773 0.745226 8.02885 2.51134 70.6507 -3.17158 -2.93404 106.21 21.1907 4.66375 4.37326e-015 0 3.18055e-015 7.86551 12.7717 -1.8478 -8.47159e-006 -1.19465e-005 -3.00221 8.02913 -4.95141 0.697663 -63.8791 -2.63156 2.09244 -113.667 21.2257 10.9384 -2.96836e-005 1.07723e-006 1.20732e-006 -15.8963 8.4448 1.52885 1.0874e-005 1.20473e-006 3.00001 -8.02898 -4.95142 -0.697703 176.914 -4.58838 3.16962 180 7.01511e-015 178.777 178.854 5.51946 179.632 4.95523e-006 -6.37223e-006 0.0880636 -19.1864 68.4564 19.932 8.13649 25.2327 -3.48774 -174.496 -2.83723 -2.18623 4.54188e-006 -4.6773e-006 -1.16577 -2.42293 -7.16803 0.0140383 4.09101e-008 -1.01983e-005 -0.122583 19.7242 69.1348 -20.5433 -8.13649 25.2327 3.48774 
59.823 96.9787 25.8439 0.0945904 -5.15655 0.230358 0.048441 -0.406084 -0.211735 0.0985652 3.19049 -0.430583 0.10383 4.83554 -0.432758 -2.27581 7.66952 2.96217 0.710561 8.14837 2.5261 70.6612 -3.18643 -2.94201 106.192 21.176 4.78444 -1.59028e-015 0 6.36111e-015 7.78106 12.7 -1.83372 -8.47159e-006 -1.19465e-005 -3.00221 8.02913 -4.95141 0.697663 -63.8741 -2.63123 2.09182 -113.64 21.152 10.9283 -2.96836e-005 1.07723e-006 1.20732e-006 -15.9198 8.49643 1.5376 1.0874e-005 1.20473e-006 3.00001 -8.02898 -4.95142 -0.697703 176.914 -4.57708 3.1687 180 7.01511e-015 178.777 178.852 5.51429 179.632 4.95523e-006 -6.37223e-006 0.0880624 -19.1814 68.4507 19.9265 8.13649 25.2327 -3.48774 -174.495 -2.8303 -2.18748 4.54188e-006 -4.6773e-006 -1.16577 -2.42541 -7.16804 0.0137287 4.09101e-008 -1.01983e-005 -0.122583 19.7255 69.1361 -20.5446 -8.13649 25.2327 3.48774 
59.8226 96.9794 25.8518 0.0917715 -5.14914 0.215392 0.0491255 -0.40654 -0.212779 0.0994639 3.18958 -0.433042 0.104763 4.83463 -0.435223 -2.22397 7.67475 2.96654 0.674787 8.26846 2.5409 70.672 -3.20135 -2.95003 106.173 21.1612 4.90487 1.39149e-014 0 4.77083e-015 7.69687 12.6276 -1.81961 -8.47159e-006 -1.19465e-005 -3.00221 8.02913 -4.95141 0.697663 -63.8688 -2.63085 2.09114 -113.614 21.0782 10.9183 -2.96836e-005 1.07723e-006 1.20732e-006 -15.9435 8.54773 1.54629 1.0874e-005 1.20473e-006 3.00001 -8.02898 -4.95142 -0.697703 176.913 -4.56597 3.16779 180 7.01511e-015 178.777 178.85 5.50898 179.632 4.95523e-006 -6.37223e-006 0.0880615 -19.1762 68.4449 19.921 8.13649 25.2327 -3.48774 -174.494 -2.82354 -2.18879 4.54188e-006 -4.6773e-006 -1.16577 -2.4279 -7.16802 0.0134183 4.09101e-008 -1.01983e-005 -0.122583 19.7268 69.1375 -20.546 -8.13649 25.2327 3.48774 
59.8087 96.9824 25.8822 0.0889481 -5.14174 0.200405 0.0498093 -0.406991 -0.213821 0.100359 3.18867 -0.435501 0.105692 4.83372 -0.437688 -2.17202 7.67986 2.97088 0.63869 8.38869 2.55571 70.6829 -3.21628 -2.95807 106.154 21.1464 5.02522 2.78299e-015 -9.54166e-015 -0 7.61276 12.5551 -1.8055 -8.47159e-006 -1.19465e-005 -3.00221 8.02913 -4.95141 0.697663 -63.8635 -2.63046 2.09045 -113.587 21.0043 10.9085 -2.96836e-005 1.07723e-006 1.20732e-006 -15.9673 8.59894 1.55496 1.0874e-005 1.20473e-006 3.00001 -8.02898 -4.95142 -0.697703 176.913 -4.5549 3.16688 180 7.01511e-015 178.777 178.848 5.50361 179.632 4.95523e-006 -6.37223e-006 0.0880606 -19.1711 68.4391 19.9155 8.13649 25.2327 -3.48774 -174.493 -2.81682 -2.19012 4.54188e-006 -4.6773e-006 -1.16577 -2.43039 -7.16799 0.0131076 4.09101e-008 -1.01983e-005 -0.122583 19.7281 69.139 -20.5475 -8.13649 25.2327 3.48774 
59.8177 96.9805 25.86 0.0861453 -5.1343 0.18546 0.0504946 -0.407451 -0.214866 0.101261 3.18775 -0.43796 0.106629 4.8328 -0.440153 -2.1203 7.68522 2.97526 0.603052 8.50863 2.57055 70.6935 -3.23118 -2.96608 106.136 21.1315 5.14566 -4.37326e-015 -6.36111e-015 -0 7.52859 12.4829 -1.79142 -8.47159e-006 -1.19465e-005 -3.00221 8.02913 -4.95141 0.697663 -63.8583 -2.6301 2.08979 -113.56 20.9305 10.8986 -2.96836e-005 1.07723e-006 1.20732e-006 -15.991 8.65031 1.56367 1.0874e-005 1.20473e-006 3.00001 -8.02898 -4.95142 -0.697703 176.913 -4.54374 3.16597 180 7.01511e-015 178.777 178.846 5.49833 179.632 4.95523e-006 -6.37223e-006 0.0880596 -19.166 68.4333 19.91 8.13649 25.2327 -3.48774 -174.493 -2.81001 -2.19142 4.54188e-006 -4.6773e-006 -1.16577 -2.43288 -7.16798 0.0127973 4.09101e-008 -1.01983e-005 -0.122583 19.7294 69.1404 -20.5489 -8.13649 25.2327 3.48774 
59.8233 96.9889 25.8752 0.0833878 -5.12675 0.170619 0.0511839 -0.407931 -0.215913 0.102182 3.18679 -0.440417 0.107584 4.83183 -0.442616 -2.06916 7.69118 2.97975 0.568659 8.62786 2.58539 70.7038 -3.24601 -2.97403 106.118 21.1164 5.26637 -1.07344e-014 0 1.59028e-015 7.44418 12.4114 -1.77741 -8.47159e-006 -1.19465e-005 -3.00221 8.02913 -4.95141 0.697663 -63.8535 -2.62978 2.08918 -113.533 20.857 10.8884 -2.96836e-005 1.07723e-006 1.20732e-006 -16.0145 8.70211 1.57246 1.0874e-005 1.20473e-006 3.00001 -8.02898 -4.95142 -0.697703 176.912 -4.53234 3.16506 180 7.01511e-015 178.777 178.844 5.49323 179.632 4.95523e-006 -6.37223e-006 0.0880583 -19.161 68.4275 19.9046 8.13649 25.2327 -3.48774 -174.492 -2.80299 -2.19263 4.54188e-006 -4.6773e-006 -1.16577 -2.43534 -7.16801 0.0124882 4.09101e-008 -1.01983e-005 -0.122583 19.7306 69.1416 -20.5501 -8.13649 25.2327 3.48774 
59.8302 96.988 25.8714 0.0807008 -5.11901 0.155944 0.0518794 -0.408444 -0.216966 0.103132 3.18576 -0.442871 0.108568 4.8308 -0.445078 -2.01897 7.69811 2.98439 0.536297 8.74595 2.60022 70.7135 -3.26071 -2.98187 106.099 21.1009 5.38752 -4.37326e-015 -6.36111e-015 1.59028e-015 7.35938 12.3412 -1.7635 -8.47159e-006 -1.19465e-005 -3.00221 8.02913 -4.95141 0.697663 -63.8491 -2.62955 2.08867 -113.505 20.7839 10.8779 -2.96836e-005 1.07723e-006 1.20732e-006 -16.0376 8.75458 1.58138 1.0874e-005 1.20473e-006 3.00001 -8.02898 -4.95142 -0.697703 176.912 -4.52057 3.16415 180 7.01511e-015 178.777 178.842 5.48847 179.632 4.95523e-006 -6.37223e-006 0.0880562 -19.156 68.4219 19.8993 8.13649 25.2327 -3.48774 -174.491 -2.79562 -2.19373 4.54188e-006 -4.6773e-006 -1.16577 -2.43777 -7.16812 0.0121808 4.09101e-008 -1.01983e-005 -0.122583 19.7316 69.1427 -20.5512 -8.13649 25.2327 3.48774 
59.818 96.9892 25.8496 0.0781091 -5.11101 0.141497 0.0525835 -0.409002 -0.218026 0.104123 3.18464 -0.445322 0.109594 4.82968 -0.447537 -1.97006 7.70636 2.98925 0.506751 8.86247 2.61504 70.7222 -3.27525 -2.98956 106.081 21.0851 5.50927 3.45885e-014 -9.54166e-015 1.43125e-014 7.27402 12.2726 -1.74972 -8.47159e-006 -1.19465e-005 -3.00221 8.02913 -4.95141 0.697663 -63.8455 -2.62943 2.08828 -113.477 20.7113 10.8669 -2.96836e-005 1.07723e-006 1.20732e-006 -16.0603 8.80797 1.59047 1.0874e-005 1.20473e-006 3.00001 -8.02898 -4.95142 -0.697703 176.911 -4.50828 3.16323 180 7.01511e-015 178.777 178.84 5.48411 179.632 4.95523e-006 -6.37223e-006 0.0880534 -19.1512 68.4164 19.8941 8.13649 25.2327 -3.48774 -174.491 -2.78778 -2.19465 4.54188e-006 -4.6773e-006 -1.16577 -2.44014 -7.16833 0.0118759 4.09101e-008 -1.01983e-005 -0.122583 19.7324 69.1435 -20.552 -8.13649 25.2327 3.48774 
59.823 96.9901 25.8487 0.0756379 -5.10269 0.127341 0.0532987 -0.409618 -0.219095 0.105167 3.18341 -0.447768 0.110671 4.82845 -0.449992 -1.92279 7.71631 2.9944 0.480808 8.977 2.62983 70.7298 -3.28957 -2.99706 106.064 21.0689 5.63181 -3.53113e-031 3.18055e-015 6.36111e-015 7.18794 12.2061 -1.7361 -8.47159e-006 -1.19465e-005 -3.00221 8.02913 -4.95141 0.697663 -63.8428 -2.62946 2.08806 -113.448 20.6395 10.8552 -2.96836e-005 1.07723e-006 1.20732e-006 -16.0824 8.86253 1.59978 1.0874e-005 1.20473e-006 3.00001 -8.02898 -4.95142 -0.697703 176.91 -4.49532 3.1623 180 7.01511e-015 178.777 178.838 5.4803 179.632 4.95523e-006 -6.37223e-006 0.0880494 -19.1466 68.4111 19.8891 8.13649 25.2327 -3.48774 -174.491 -2.77933 -2.19536 4.54188e-006 -4.6773e-006 -1.16577 -2.44244 -7.16866 0.011574 4.09101e-008 -1.01983e-005 -0.122583 19.7329 69.144 -20.5525 -8.13649 25.2327 3.48774 
59.8228 96.9932 25.8424 0.0733122 -5.09398 0.113537 0.0540272 -0.410303 -0.220176 0.106273 3.18203 -0.450209 0.111811 4.82707 -0.452444 -1.87752 7.72831 2.99988 0.459255 9.08912 2.64459 70.7361 -3.30363 -3.00434 106.046 21.0521 5.75529 -6.36111e-015 3.18055e-015 -0 7.10098 12.1421 -1.72269 -8.47159e-006 -1.19465e-005 -3.00221 8.02913 -4.95141 0.697663 -63.8412 -2.62966 2.08803 -113.417 20.5686 10.8427 -2.96836e-005 1.07723e-006 1.20732e-006 -16.1037 8.91851 1.60936 1.0874e-005 1.20473e-006 3.00001 -8.02898 -4.95142 -0.697703 176.909 -4.48156 3.16137 180 7.01511e-015 178.777 178.836 5.47714 179.632 4.95523e-006 -6.37223e-006 0.0880441 -19.1422 68.4061 19.8844 8.13649 25.2327 -3.48774 -174.491 -2.77014 -2.1958 4.54188e-006 -4.6773e-006 -1.16577 -2.44466 -7.16916 0.0112759 4.09101e-008 -1.01983e-005 -0.122583 19.733 69.1441 -20.5526 -8.13649 25.2327 3.48774 
